<?xml version="1.0" encoding="UTF-8"?>
<svg width="164px" height="22px" viewBox="0 0 164 22" version="1.1" xmlns="http://www.w3.org/2000/svg" xmlns:xlink="http://www.w3.org/1999/xlink">
    <title>logo</title>
    <defs>
        <polygon id="path-1" points="0 0 164 0 164 22 0 22"></polygon>
    </defs>
    <g id="Succes-page" stroke="none" stroke-width="1" fill="none" fill-rule="evenodd">
        <g id="Succes-Page---Large" transform="translate(-1038.000000, -1125.000000)">
            <g id="logo" transform="translate(1038.000000, 1125.000000)">
                <mask id="mask-2" fill="white">
                    <use xlink:href="#path-1"></use>
                </mask>
                <g id="logo-a"></g>
                <path d="M162.017541,2.17111924 C162.201471,2.17111924 162.298211,2.09227809 162.298211,1.9345958 L162.298211,1.92588178 C162.298211,1.76819948 162.193583,1.70637142 162.017541,1.70637142 L161.8415,1.70637142 L161.8415,2.17111924 L162.017541,2.17111924 Z M161.298429,1.29390773 L162.043698,1.29390773 C162.54442,1.29390773 162.824259,1.49640499 162.824259,1.89932476 L162.824259,1.90803878 C162.824259,2.18854729 162.675621,2.33751556 162.474253,2.42507073 L162.939268,3.21514203 L162.376682,3.21514203 L161.98225,2.52216983 L161.8415,2.52216983 L161.8415,3.21514203 L161.298429,3.21514203 L161.298429,1.29390773 Z M163.631393,2.27693236 C163.631393,1.32046475 162.95629,0.66276359 162.017541,0.66276359 C161.078377,0.66276359 160.40286,1.32876382 160.40286,2.28523143 C160.40286,3.24916821 161.113668,3.88985628 162.017541,3.88985628 C162.928888,3.88985628 163.631393,3.23215512 163.631393,2.27693236 L163.631393,2.27693236 Z M160.025865,2.28523143 C160.025865,1.20635256 160.903166,0.329970953 162.017541,0.329970953 C163.140636,0.329970953 164.000083,1.19763854 164.000083,2.27693236 C164.000083,3.37282432 163.122367,4.22223396 162.017541,4.22223396 C160.9123,4.22223396 160.025865,3.38153835 160.025865,2.28523143 L160.025865,2.28523143 Z M148.807793,14.3292542 L148.807793,14.0989551 C148.807793,9.22657211 152.299558,6.25675054 156.596795,6.25675054 C160.088144,6.25675054 163.319168,7.78419405 163.694087,12.1088385 L159.742289,12.1088385 C159.453316,10.349851 158.386272,9.54318156 156.683155,9.54318156 C154.518759,9.54318156 153.077628,11.1581802 153.077628,14.0416915 L153.077628,14.2719906 C153.077628,17.2990758 154.432399,18.8572258 156.769515,18.8572258 C158.443984,18.8572258 159.800416,17.876276 160.001369,15.9442529 L163.781692,15.9442529 C163.5496,19.5194915 160.953404,22.000083 156.568147,22.000083 C152.154241,22.000083 148.807793,19.2613905 148.807793,14.3292542 L148.807793,14.3292542 Z M142.288864,21.6822287 L146.443275,21.6822287 L146.443275,6.60240673 L142.288864,6.60240673 L142.288864,21.6822287 Z M141.972903,2.27610246 C141.972903,0.978543136 143.011713,8.29906824e-05 144.337837,8.29906824e-05 C145.693438,8.29906824e-05 146.732249,0.978543136 146.732249,2.27610246 C146.732249,3.57366178 145.693438,4.55502659 144.337837,4.55502659 C143.011713,4.55502659 141.972903,3.57366178 141.972903,2.27610246 L141.972903,2.27610246 Z M132.59081,17.2127655 L132.59081,9.57098344 L130.658091,9.57098344 L130.658091,6.60240673 L132.59081,6.60240673 L132.59081,3.34377758 L136.745221,3.34377758 L136.745221,6.60240673 L139.918533,6.60240673 L139.918533,9.57098344 L136.745221,9.57098344 L136.745221,16.8376476 C136.745221,18.0488966 137.350571,18.6256818 138.418445,18.6256818 C139.052443,18.6256818 139.514967,18.5393715 140.004893,18.3377042 L140.004893,21.5668716 C139.428192,21.7689539 138.59158,21.9706213 137.465994,21.9706213 C134.293512,21.9706213 132.59081,20.3556226 132.59081,17.2127655 L132.59081,17.2127655 Z M125.717307,12.5130031 C125.574481,10.2357388 124.419002,9.13984684 122.427741,9.13984684 C120.55398,9.13984684 119.284738,10.3793127 118.967116,12.5130031 L125.717307,12.5130031 Z M114.667803,14.3292542 L114.667803,14.0989551 C114.667803,9.34109925 118.043729,6.25675054 122.427741,6.25675054 C126.323072,6.25675054 129.785773,8.53401486 129.785773,13.9263345 L129.785773,15.0803199 L118.909819,15.0803199 C119.023997,17.5874684 120.38126,19.0290166 122.659833,19.0290166 C124.592137,19.0290166 125.545002,18.1924705 125.804082,16.9256177 L129.756294,16.9256177 C129.266783,20.182587 126.670173,22.000083 122.543995,22.000083 C117.985187,22.000083 114.667803,19.1443736 114.667803,14.3292542 L114.667803,14.3292542 Z M106.158028,17.2127655 L106.158028,9.57098344 L104.225309,9.57098344 L104.225309,6.60240673 L106.158028,6.60240673 L106.158028,3.34377758 L110.312439,3.34377758 L110.312439,6.60240673 L113.484506,6.60240673 L113.484506,9.57098344 L110.312439,9.57098344 L110.312439,16.8376476 C110.312439,18.0488966 110.917789,18.6256818 111.986078,18.6256818 C112.619661,18.6256818 113.082185,18.5393715 113.570866,18.3377042 L113.570866,21.5668716 C112.995825,21.7689539 112.158798,21.9706213 111.033212,21.9706213 C107.8599,21.9706213 106.158028,20.3556226 106.158028,17.2127655 L106.158028,17.2127655 Z M90.3869609,16.9534196 L94.2810465,16.9534196 C94.4537663,18.3094873 95.1168279,19.08711 96.9353688,19.08711 C98.5517111,19.08711 99.3015479,18.4808631 99.3015479,17.4426497 C99.3015479,16.4056811 98.406394,15.9737146 96.243659,15.6558603 C92.2329045,15.0496133 90.6751042,13.8968728 90.6751042,10.9548531 C90.6751042,7.81199593 93.5602732,6.25675054 96.6468104,6.25675054 C99.9932577,6.25675054 102.503508,7.46633973 102.878842,10.9270512 L99.0403921,10.9270512 C98.8112061,9.6880003 98.1178355,9.10955525 96.6758738,9.10955525 C95.3198568,9.10955525 94.5401263,9.74484892 94.5401263,10.6664604 C94.5401263,11.6183636 95.2621451,11.9930665 97.4539436,12.3109208 C101.234682,12.8586593 103.311057,13.8105625 103.311057,17.0397299 C103.311057,20.298359 100.945708,22.000083 96.964017,22.000083 C92.8955509,22.000083 90.5314478,20.2120487 90.3869609,16.9534196 L90.3869609,16.9534196 Z M84.8200669,12.5130031 C84.6772409,10.2357388 83.5217616,9.13984684 81.5309161,9.13984684 C79.6567395,9.13984684 78.3879129,10.3793127 78.070291,12.5130031 L84.8200669,12.5130031 Z M73.7705629,14.3292542 L73.7705629,14.0989551 C73.7705629,9.34109925 77.146904,6.25675054 81.5309161,6.25675054 C85.4254168,6.25675054 88.8885331,8.53401486 88.8885331,13.9263345 L88.8885331,15.0803199 L78.0113337,15.0803199 C78.1271723,17.5874684 79.4840197,19.0290166 81.7625932,19.0290166 C83.6948967,19.0290166 84.6473471,18.1924705 84.9068421,16.9256177 L88.8594697,16.9256177 C88.3699583,20.182587 85.7733477,22.000083 81.6471699,22.000083 C77.0879468,22.000083 73.7705629,19.1443736 73.7705629,14.3292542 L73.7705629,14.3292542 Z M67.9719918,14.242529 L67.9719918,14.0416915 C67.9719918,11.1581802 66.6155596,9.42865442 64.2796895,9.42865442 C61.9716373,9.42865442 60.5853113,11.0996718 60.5853113,13.9831831 L60.5853113,14.2147271 C60.5853113,17.0969935 61.9130953,18.8281791 64.2796895,18.8281791 C66.6155596,18.8281791 67.9719918,17.0969935 67.9719918,14.242529 L67.9719918,14.242529 Z M56.315477,14.2997925 L56.315477,14.0711532 C56.315477,9.34109925 59.7491147,6.25675054 64.2796895,6.25675054 C68.8090188,6.25675054 72.2127626,9.28383568 72.2127626,13.9831831 L72.2127626,14.2147271 C72.2127626,18.971753 68.7799553,22.000083 64.2502109,22.000083 C59.7491147,22.000083 56.315477,19.0007997 56.315477,14.2997925 L56.315477,14.2997925 Z M41.987202,16.9534196 L45.8821179,16.9534196 C46.0548377,18.3094873 46.7187297,19.08711 48.5372706,19.08711 C50.1531977,19.08711 50.9022041,18.4808631 50.9022041,17.4426497 C50.9022041,16.4056811 50.0087109,15.9737146 47.8443152,15.6558603 C43.8335607,15.0496133 42.2757604,13.8968728 42.2757604,10.9548531 C42.2757604,7.81199593 45.1609294,6.25675054 48.248297,6.25675054 C51.5939139,6.25675054 54.1054102,7.46633973 54.4790829,10.9270512 L50.6431243,10.9270512 C50.4114471,9.6880003 49.7197373,9.10955525 48.2777756,9.10955525 C46.9209282,9.10955525 46.1428584,9.74484892 46.1428584,10.6664604 C46.1428584,11.6183636 46.8636317,11.9930665 49.0562605,12.3109208 C52.8349227,12.8586593 54.9129585,13.8105625 54.9129585,17.0397299 C54.9129585,20.298359 52.5463643,22.000083 48.5650884,22.000083 C44.4970375,22.000083 42.132104,20.2120487 41.987202,16.9534196 L41.987202,16.9534196 Z M36.4227991,12.5130031 C36.2774819,10.2357388 35.1244938,9.13984684 33.1328179,9.13984684 C31.2578109,9.13984684 29.9885691,10.3793127 29.6717776,12.5130031 L36.4227991,12.5130031 Z M25.3724647,14.3292542 L25.3724647,14.0989551 C25.3724647,9.34109925 28.7488058,6.25675054 33.1328179,6.25675054 C37.028149,6.25675054 40.4904349,8.53401486 40.4904349,13.9263345 L40.4904349,15.0803199 L29.6136507,15.0803199 C29.7290741,17.5874684 31.0855063,19.0290166 33.364495,19.0290166 C35.2972137,19.0290166 36.249664,18.1924705 36.509159,16.9256177 L40.4613714,16.9256177 C39.9706145,20.182587 37.3740039,22.000083 33.2486564,22.000083 C28.6902637,22.000083 25.3724647,19.1443736 25.3724647,14.3292542 L25.3724647,14.3292542 Z M8.30383951e-05,6.60240673 L4.18397258,6.60240673 L4.18397258,8.90871779 C4.93422448,7.49580143 6.55056684,6.25675054 8.80007696,6.25675054 C10.7913377,6.25675054 12.2918415,7.09288166 13.0126147,8.88091592 C14.2245601,7.06217511 16.1867574,6.25675054 18.0904126,6.25675054 C20.8888065,6.25675054 23.0532023,8.01407824 23.0532023,12.0237731 L23.0532023,21.6822287 L18.8987914,21.6822287 L18.8987914,12.4847863 C18.8987914,10.5519333 18.0314553,9.6880003 16.5326123,9.6880003 C14.9175155,9.6880003 13.6179646,10.7262137 13.6179646,12.7735939 L13.6179646,21.6822287 L9.46479932,21.6822287 L9.46479932,12.4847863 C9.46479932,10.5519333 8.56964542,9.6880003 7.09820505,9.6880003 C5.48186269,9.6880003 4.18397258,10.7262137 4.18397258,12.7735939 L4.18397258,21.6822287 L8.30383951e-05,21.6822287 L8.30383951e-05,6.60240673 Z" id="Shape" fill="#1D1D1B" fill-rule="nonzero" mask="url(#mask-2)"></path>
            </g>
        </g>
    </g>
</svg>